<svg xmlns="http://www.w3.org/2000/svg" xmlns:xlink="http://www.w3.org/1999/xlink" width="158" height="32" viewBox="0 0 158 32">
    <defs>
        <filter id="prefix__b" width="127.4%" height="132.8%" x="-13.7%" y="-16.4%" filterUnits="objectBoundingBox">
            <feGaussianBlur in="SourceAlpha" result="shadowBlurInner1" stdDeviation="1.5"/>
            <feOffset dy="1" in="shadowBlurInner1" result="shadowOffsetInner1"/>
            <feComposite in="shadowOffsetInner1" in2="SourceAlpha" k2="-1" k3="1" operator="arithmetic" result="shadowInnerInner1"/>
            <feColorMatrix in="shadowInnerInner1" values="0 0 0 0 0 0 0 0 0 0 0 0 0 0 0 0 0 0 0.12 0"/>
        </filter>
        <filter id="prefix__c" width="196%" height="214.9%" x="-48%" y="-41%" filterUnits="objectBoundingBox">
            <feOffset dy="2" in="SourceAlpha" result="shadowOffsetOuter1"/>
            <feGaussianBlur in="shadowOffsetOuter1" result="shadowBlurOuter1" stdDeviation="2"/>
            <feColorMatrix in="shadowBlurOuter1" values="0 0 0 0 0 0 0 0 0 0 0 0 0 0 0 0 0 0 0.12 0"/>
        </filter>
        <filter id="prefix__e" width="182.3%" height="198.5%" x="-41.1%" y="-32.8%" filterUnits="objectBoundingBox">
            <feGaussianBlur in="SourceAlpha" result="shadowBlurInner1" stdDeviation="1.5"/>
            <feOffset dy="1" in="shadowBlurInner1" result="shadowOffsetInner1"/>
            <feComposite in="shadowOffsetInner1" in2="SourceAlpha" k2="-1" k3="1" operator="arithmetic" result="shadowInnerInner1"/>
            <feColorMatrix in="shadowInnerInner1" values="0 0 0 0 0 0 0 0 0 0 0 0 0 0 0 0 0 0 0.12 0"/>
        </filter>
        <filter id="prefix__f" width="196%" height="215%" x="-48%" y="-41.1%" filterUnits="objectBoundingBox">
            <feOffset dy="2" in="SourceAlpha" result="shadowOffsetOuter1"/>
            <feGaussianBlur in="shadowOffsetOuter1" result="shadowBlurOuter1" stdDeviation="2"/>
            <feColorMatrix in="shadowBlurOuter1" values="0 0 0 0 0 0 0 0 0 0 0 0 0 0 0 0 0 0 0.12 0"/>
        </filter>
        <path id="prefix__a" d="M14.632 12.321L7.329 0.147 21.918 0.137z"/>
        <path id="prefix__d" d="M14.632 12.321L7.329 24.495 21.918 24.504z"/>
        <path id="prefix__g" d="M0.034 12.318L14.624 12.318 7.329 0.139z"/>
    </defs>
    <g fill="none" fill-rule="evenodd">
        <path fill="#FFF" d="M38.152 21.917c-1.843 0-3.509-.403-4.999-1.209-1.49-.806-2.66-1.924-3.513-3.354-.852-1.43-1.279-3.046-1.279-4.849 0-1.803.427-3.419 1.28-4.849.852-1.43 2.023-2.548 3.512-3.354 1.49-.806 3.165-1.209 5.025-1.209 1.567 0 2.984.277 4.25.832 1.265.555 2.329 1.352 3.19 2.392l-2.687 2.496c-1.222-1.421-2.738-2.132-4.546-2.132-1.12 0-2.119.247-2.997.741-.878.494-1.563 1.183-2.054 2.067-.49.884-.736 1.89-.736 3.016 0 1.127.245 2.132.736 3.016.491.884 1.176 1.573 2.054 2.067.878.494 1.877.741 2.997.741 1.808 0 3.324-.72 4.546-2.158l2.687 2.496c-.861 1.057-1.929 1.863-3.203 2.418-1.275.555-2.696.832-4.263.832zm22.044-4.212H51.8l-1.602 3.9H45.91l8.06-18.2h4.133l8.086 18.2h-4.392l-1.601-3.9zm-1.318-3.198l-2.867-6.968-2.868 6.968h5.735zm25.867 7.098l-.026-10.92-5.321 8.996h-1.886l-5.296-8.762v10.686h-3.927v-18.2h3.462l6.768 11.31 6.665-11.31h3.436l.052 18.2h-3.927zm16.257-18.2c1.602 0 2.992.269 4.172.806 1.18.537 2.088 1.3 2.726 2.288.637.988.955 2.158.955 3.51 0 1.335-.318 2.5-.955 3.497-.638.997-1.546 1.76-2.726 2.288-1.18.529-2.57.793-4.172.793H97.36v5.018h-4.185v-18.2h7.827zm-.232 9.75c1.257 0 2.213-.273 2.867-.819.655-.546.982-1.322.982-2.327 0-1.023-.327-1.807-.982-2.353-.654-.546-1.61-.819-2.867-.819h-3.41v6.318h3.41zm17.858 1.3l-2.428 2.548v4.602h-4.16v-18.2h4.16v8.502l8.008-8.502h4.65l-7.491 8.112 7.93 10.088h-4.882l-5.787-7.15zm19.099-11.05v18.2h-4.185V6.785h-3.617v-3.38h7.802zm16.877 14.768v3.432h-13.666v-2.73l6.975-6.63c.74-.71 1.24-1.322 1.498-1.833.259-.511.388-1.018.388-1.521 0-.728-.246-1.287-.736-1.677-.491-.39-1.21-.585-2.158-.585-.792 0-1.507.152-2.144.455-.637.303-1.17.758-1.601 1.365l-3.049-1.976c.706-1.057 1.68-1.885 2.92-2.483 1.24-.598 2.66-.897 4.262-.897 1.343 0 2.519.221 3.526.663 1.008.442 1.791 1.066 2.351 1.872s.84 1.755.84 2.847c0 .988-.207 1.915-.62 2.782-.414.867-1.215 1.855-2.403 2.964l-4.16 3.952h7.777z" transform="translate(3 1)"/>
        <g transform="translate(3 1) translate(0 .286)">
            <path stroke="#FEFEFE" stroke-linejoin="round" stroke-width=".5" d="M0.034 12.318L7.329 0.139 14.623 12.318z"/>
            <use fill="#FFF" xlink:href="#prefix__a"/>
            <use fill="#000" filter="url(#prefix__b)" xlink:href="#prefix__a"/>
            <path stroke="#ECECEC" stroke-linejoin="round" stroke-width=".5" d="M14.632 12.321L7.329 0.147 21.918 0.137z"/>
            <use fill="#000" filter="url(#prefix__c)" xlink:href="#prefix__d"/>
            <use fill="#FFF" xlink:href="#prefix__d"/>
            <use fill="#000" filter="url(#prefix__e)" xlink:href="#prefix__d"/>
            <path stroke="#EDEDED" stroke-linejoin="round" stroke-width=".5" d="M14.632 12.321L7.329 24.495 21.918 24.504z"/>
            <path fill="#FFF" d="M0.034 12.323L7.329 24.502 14.624 12.323z"/>
            <path stroke="#FEFEFE" stroke-linejoin="round" stroke-width=".5" d="M0.034 12.323L7.329 24.502 14.624 12.323z"/>
            <g>
                <use fill="#000" filter="url(#prefix__f)" xlink:href="#prefix__g"/>
                <use fill="#FFF" xlink:href="#prefix__g"/>
            </g>
        </g>
    </g>
</svg>
