<svg xmlns="http://www.w3.org/2000/svg" width="17" height="14" viewBox="0 0 17 14">
    <path fill="#A5AABB" d="M10.259 2.398c.786.481 1.337 1.296 1.437 2.241.32.146.677.23 1.054.23 1.377 0 2.493-1.09 2.493-2.434C15.243 1.09 14.127 0 12.75 0c-1.364 0-2.47 1.07-2.491 2.398zM8.625 7.383c1.377 0 2.494-1.09 2.494-2.435 0-1.344-1.117-2.434-2.494-2.434-1.377 0-2.493 1.09-2.493 2.435 0 1.344 1.116 2.434 2.493 2.434zm1.058.166H7.567c-1.76 0-3.192 1.399-3.192 3.118v2.526l.007.04.178.054c1.68.513 3.14.684 4.34.684 2.347 0 3.706-.653 3.79-.695l.167-.082h.018v-2.527c0-1.72-1.432-3.118-3.192-3.118zm4.125-2.513h-2.1c-.022.82-.38 1.558-.948 2.09 1.565.454 2.71 1.87 2.71 3.544v.78c2.072-.075 3.267-.649 3.346-.687l.166-.083H17V8.153c0-1.719-1.432-3.117-3.192-3.117zM4.25 4.87c.487 0 .941-.14 1.326-.376.122-.778.549-1.459 1.16-1.922.002-.045.006-.09.006-.137 0-1.344-1.116-2.434-2.492-2.434-1.378 0-2.494 1.09-2.494 2.434 0 1.345 1.116 2.435 2.494 2.435zM6.49 7.126c-.565-.529-.922-1.264-.948-2.079-.078-.005-.155-.011-.234-.011H3.192C1.432 5.036 0 6.434 0 8.153v2.527l.007.039.178.055c1.347.41 2.55.6 3.595.66v-.764c0-1.673 1.145-3.09 2.71-3.544z"/>
</svg>
