<svg xmlns="http://www.w3.org/2000/svg" width="34" height="34" viewBox="0 0 34 34">
    <defs>
        <linearGradient id="prefix__a" x1="50%" x2="50%" y1="100%" y2="0%">
            <stop offset="0%" stop-color="#FB8E46"/>
            <stop offset="100%" stop-color="#FFD01E"/>
        </linearGradient>
    </defs>
    <g fill="none" fill-rule="evenodd">
        <rect width="34" height="34" fill="url(#prefix__a)" rx="3.984"/>
        <g fill-rule="nonzero">
            <path d="M0 0H24V24H0z" transform="translate(5 5)"/>
            <path fill="#FFF" d="M22.146 5.883c-.235-.255-.521-.383-.858-.383h-3.634V4.187c0-.601-.198-1.116-.593-1.544C16.665 2.214 16.19 2 15.635 2h-7.27c-.555 0-1.03.214-1.426.643-.395.428-.593.943-.593 1.544V5.5H2.712c-.337 0-.623.127-.859.383-.235.255-.353.565-.353.93v1.75c0 .646.175 1.298.524 1.955.349.656.82 1.248 1.413 1.777.593.529 1.321.973 2.183 1.333.863.36 1.77.563 2.72.608.354.493.753.926 1.2 1.3.319.309.54.64.662.99.122.351.183.76.183 1.224 0 .492-.129.907-.385 1.244-.257.337-.667.506-1.23.506-.632 0-1.193.207-1.686.622-.492.415-.738.937-.738 1.566v.875c0 .127.038.232.114.314.075.082.172.123.29.123h10.5c.118 0 .215-.04.29-.123.076-.082.114-.187.114-.314v-.875c0-.63-.246-1.15-.739-1.566-.492-.415-1.054-.622-1.685-.622-.563 0-.974-.169-1.23-.506-.256-.337-.384-.752-.384-1.244 0-.465.06-.873.182-1.223.123-.352.344-.682.663-.992.446-.374.846-.807 1.199-1.299.95-.045 1.857-.248 2.72-.608.862-.36 1.59-.804 2.183-1.333.593-.529 1.064-1.121 1.413-1.777.35-.657.524-1.308.524-1.956v-1.75c0-.364-.118-.674-.354-.93zM4.308 10.777c-.795-.765-1.193-1.504-1.193-2.215V7.25h3.231c0 1.905.311 3.596.934 5.072-1.186-.264-2.177-.78-2.972-1.545zm16.576-2.215c0 .711-.397 1.45-1.192 2.215-.795.766-1.786 1.281-2.972 1.545.623-1.476.934-3.167.934-5.072h3.23v1.312z" transform="translate(5 5)"/>
        </g>
    </g>
</svg>
