<svg xmlns="http://www.w3.org/2000/svg" xmlns:xlink="http://www.w3.org/1999/xlink" width="76" height="76" viewBox="0 0 76 76">
    <defs>
        <circle id="prefix__a" cx="38" cy="38" r="38"/>
        <circle id="prefix__b" cx="38" cy="38" r="38"/>
    </defs>
    <g fill="none" fill-rule="evenodd">
        <g>
            <mask id="prefix__c" fill="#fff">
                <use xlink:href="#prefix__b"/>
            </mask>
            <g fill-rule="nonzero" mask="url(#prefix__c)">
                <g>
                    <path fill="#F8E9C3" d="M24.313 13.665h-.001v8.697l7.54 4.349 7.54-4.349v-8.697h-.001l-3.844-2.216-3.695-2.132-7.539 4.348zm18.85-9.46v27.617H20.541v-2.22l.413-.412c1.274-1.274 1.274-3.338 0-4.612l-.413-.413V4.205h22.62z" transform="translate(10 17)"/>
                    <path fill="#1F2A55" d="M16.772 16.49V2.573c0-.666.264-1.304.736-1.775.471-.471 1.11-.735 1.777-.735H44.42c1.388 0 2.513 1.124 2.513 2.51v33.392c0 1.386-1.125 2.51-2.513 2.51H19.285c-.667.001-1.306-.263-1.778-.734s-.736-1.11-.735-1.776v-2.596l3.77-3.766v2.22h22.62V4.204h-22.62v19.96l-.356-.355-3.414 2.7V16.49z" transform="translate(10 17)"/>
                    <path fill="#E3B022" stroke="#E3B022" stroke-width=".1" d="M39.392 13.665L39.392 22.362 31.852 26.711 31.852 18.014 39.391 13.665z" transform="translate(10 17)"/>
                    <path fill="#FFC628" stroke="#FFC628" stroke-width=".1" d="M31.852 18.014L28.008 15.796 35.547 11.449 39.391 13.665z" transform="translate(10 17)"/>
                    <path fill="#E3B022" stroke="#E3B022" stroke-width=".1" d="M31.852 9.317L35.547 11.449 28.008 15.796 24.313 13.665z" transform="translate(10 17)"/>
                    <path fill="#FFC628" stroke="#FFC628" stroke-width=".1" d="M31.852 18.014L31.852 26.711 24.312 22.362 24.312 13.665 24.313 13.665 28.008 15.796z" transform="translate(10 17)"/>
                    <path fill="#FBCB99" d="M16.81 36.875l.114-.048c.363.99 1.306 1.649 2.361 1.649h5.7v3.939c0 2.4-1.948 4.346-4.351 4.347v3.155H3.659v-20.94c0-1.14.448-2.234 1.247-3.047l11.866-9.44v10.02l3.414-2.7.356.355.413.413c1.274 1.274 1.274 3.338 0 4.612l-.413.413-3.77 3.766-.433.432-.059 1.005c0 .32.039.638.113.948.076.31.182.612.318.901.034.073.067.146.098.22z" transform="translate(10 17)"/>
                    <path fill="#FFC628" d="M23.462 51.172v6.51c0 .693-.562 1.255-1.256 1.255H1.325c-.695 0-1.257-.562-1.257-1.255v-6.51c0-.693.562-1.255 1.257-1.255h20.88c.695 0 1.257.562 1.257 1.255z" transform="translate(10 17)"/>
                    <path fill="#EDBA89" d="M16.28 45.466c-.485 0-.88-.393-.88-.878v-2.173c0-.174.052-.343.148-.487.935-1.395 1.104-3.166.45-4.712-.026-.062-.055-.126-.084-.19-.161-.342-.287-.7-.376-1.067-.09-.378-.137-.764-.137-1.153l.001-.051.06-1.006c.012-.215.103-.417.255-.57l4.616-4.61c.93-.932.93-2.438 0-3.37l-.215-.215-9.838 7.782c-.381.301-.935.237-1.236-.143-.302-.38-.238-.933.143-1.235l10.454-8.267c.35-.278.852-.249 1.168.067l.77.769c1.614 1.618 1.614 4.236 0 5.854l-4.38 4.375-.038.644c.002.243.032.484.09.72.06.252.147.498.258.733.04.084.076.166.111.25.847 2 .676 4.285-.459 6.138v1.917c0 .233-.093.456-.258.621-.165.165-.39.258-.623.257z" transform="translate(10 17)"/>
                    <path fill="#FFC628" d="M33.2 35.714h-2.696c-.486 0-.88-.394-.88-.879s.394-.879.88-.879h2.695c.486 0 .88.394.88.88 0 .484-.394.878-.88.878z" transform="translate(10 17)"/>
                </g>
            </g>
            <circle cx="38" cy="38" r="38" stroke="#FFF" stroke-width="4" mask="url(#prefix__c)"/>
        </g>
    </g>
</svg>
