<svg xmlns="http://www.w3.org/2000/svg" xmlns:xlink="http://www.w3.org/1999/xlink" width="76" height="76" viewBox="0 0 76 76">
    <defs>
        <circle id="prefix__a" cx="38" cy="38" r="38"/>
        <circle id="prefix__c" cx="38" cy="38" r="38"/>
    </defs>
    <g fill="none" fill-rule="evenodd">
        <mask id="prefix__b" fill="#fff">
            <use xlink:href="#prefix__a"/>
        </mask>
        <g mask="url(#prefix__b)">
            <mask id="prefix__d" fill="#fff">
                <use xlink:href="#prefix__c"/>
            </mask>
            <use stroke="#FFF" stroke-width="4" xlink:href="#prefix__c"/>
            <g mask="url(#prefix__d)">
                <g fill-rule="nonzero">
                    <path fill="#182145" stroke="#182145" stroke-linecap="round" stroke-linejoin="round" stroke-width="1.296" d="M21.443 17.367l-11.296 4.978L24.719 52.19l3.838-5.276h7.409L21.443 17.367z" transform="translate(18 15)"/>
                    <path fill="#1F2A55" stroke="#1F2A55" stroke-linecap="round" stroke-linejoin="round" stroke-width="1.296" d="M18.67 17.367l11.296 4.978L15.394 52.19l-3.838-5.276H4.147L18.67 17.367z" transform="translate(18 15)"/>
                    <g>
                        <path fill="#FFC628" d="M39.783 19.248c0 1.422-2.109 2.613-2.427 3.958-.319 1.383 1.074 3.343.477 4.611-.636 1.268-3.063 1.422-3.938 2.498-.876 1.076-.478 3.458-1.592 4.342-1.114.884-3.341-.039-4.614.576-1.273.615-1.95 2.92-3.342 3.228-1.353.307-2.984-1.46-4.416-1.46-1.432 0-3.063 1.767-4.416 1.46-1.392-.307-2.069-2.613-3.342-3.228-1.273-.615-3.54.308-4.614-.576-1.114-.884-.716-3.266-1.592-4.342-.875-1.076-3.302-1.23-3.938-2.498-.597-1.23.796-3.227.477-4.61C2.108 21.86 0 20.67 0 19.247c0-1.421 2.108-2.612 2.427-3.957.318-1.384-1.074-3.343-.478-4.611.637-1.268 3.064-1.422 3.939-2.498.875-1.076.477-3.458 1.591-4.342 1.114-.884 3.342.038 4.615-.576 1.273-.615 1.95-2.92 3.342-3.228 1.352-.308 2.983 1.46 4.416 1.46 1.432 0 3.063-1.768 4.415-1.46 1.393.307 2.07 2.613 3.342 3.228 1.273.614 3.54-.308 4.615.576 1.114.884.716 3.266 1.591 4.342.875 1.076 3.302 1.23 3.939 2.498.596 1.23-.796 3.227-.478 4.61.398 1.346 2.507 2.537 2.507 3.958z" transform="translate(18 15)"/>
                        <path fill="#FFF" fill-opacity=".426" d="M19.891 11.563c-4.416 0-7.956 3.459-7.956 7.685 0 4.227 3.58 7.685 7.956 7.685 4.416 0 7.957-3.458 7.957-7.685 0-4.226-3.54-7.685-7.957-7.685zm0 11.144c-1.989 0-3.58-1.537-3.58-3.459 0-1.92 1.591-3.458 3.58-3.458 1.99 0 3.58 1.537 3.58 3.458 0 1.922-1.59 3.459-3.58 3.459zm0-17.292c-7.916 0-14.321 6.187-14.321 13.833 0 7.647 6.405 13.833 14.321 13.833 7.917 0 14.322-6.186 14.322-13.833 0-7.646-6.405-13.833-14.322-13.833zm0 25.36c-6.604 0-11.934-5.148-11.934-11.527 0-6.378 5.33-11.527 11.934-11.527 6.604 0 11.935 5.149 11.935 11.527 0 6.379-5.33 11.528-11.935 11.528z" transform="translate(18 15)"/>
                    </g>
                </g>
            </g>
        </g>
    </g>
</svg>
