<svg xmlns="http://www.w3.org/2000/svg" width="16" height="16" viewBox="0 0 16 16">
    <g fill="#019977">
        <path d="M9.736 9.191c-.425 0-.766.34-.766.766s.34.766.766.766c.443 0 .766-.34.766-.766 0-.425-.34-.766-.766-.766zM6.264 6.791c.425 0 .766-.323.766-.748 0-.426-.34-.766-.766-.766-.443 0-.766.323-.766.749 0 .425.34.765.766.765z"/>
        <path d="M15.753 7.165l-.6-.891c-.052-.103-.069-.206-.069-.326l.069-1.08c.034-.617-.292-1.183-.84-1.457l-.96-.48c-.103-.051-.171-.12-.223-.223l-.497-.994c-.274-.548-.857-.874-1.457-.84l-1.08.069c-.103 0-.223-.017-.308-.086l-.926-.6c-.514-.343-1.166-.343-1.697 0l-.891.6c-.12.051-.223.069-.343.069L4.85.857c-.617-.017-1.183.309-1.474.857l-.48.96c-.052.103-.12.171-.223.223l-.96.48c-.548.274-.874.857-.84 1.457l.069 1.08c0 .103-.017.223-.086.308l-.6.926c-.343.514-.343 1.183 0 1.697l.6.891c.051.12.069.223.069.343l-.069 1.08c-.017.617.309 1.183.857 1.474l.96.48c.103.051.171.137.223.223l.48.96c.274.548.857.874 1.457.84l1.08-.069c.103 0 .223.017.308.086l.892.583c.257.171.548.257.84.257.29 0 .582-.086.84-.257l.89-.6c.086-.052.206-.086.31-.086l1.08.068c.616.035 1.182-.29 1.456-.84l.48-.96c.052-.102.12-.17.223-.222l.96-.48c.548-.274.874-.857.84-1.457l-.035-1.063c0-.103.018-.223.086-.308l.583-.909c.429-.548.429-1.217.086-1.714zM6.257 4.337c.925 0 1.68.754 1.68 1.68 0 .925-.755 1.68-1.68 1.68-.943 0-1.68-.738-1.68-1.68 0-.926.754-1.68 1.68-1.68zm-.84 6.873c-.086.086-.206.137-.326.137-.103 0-.223-.051-.326-.137-.188-.171-.188-.463 0-.634l5.794-5.794c.171-.188.463-.188.634 0 .172.189.172.463-.017.635l-5.76 5.793zm4.336.463c-.925 0-1.68-.754-1.68-1.68 0-.925.755-1.68 1.68-1.68.943 0 1.68.738 1.68 1.68 0 .926-.754 1.68-1.68 1.68z"/>
    </g>
</svg>
