<svg xmlns="http://www.w3.org/2000/svg" width="21" height="14" viewBox="0 0 21 14">
    <path fill="#FFC628" stroke="#FFC628" stroke-width=".5" d="M19.838 1.19c-.113-.125-.285-.19-.503-.19h-.063c-1.108.053-2.213.11-3.322.162-.148.008-.35.016-.51.182-.052.052-.09.113-.122.186-.164.368.066.607.176.72l.277.291c.191.202.386.404.581.603l-6.698 6.944-3.01-3.118c-.18-.186-.421-.292-.679-.292-.257 0-.495.106-.675.292l-4.009 4.15c-.375.388-.375 1.014 0 1.403l.18.186c.18.186.421.291.679.291.257 0 .496-.105.675-.291l3.15-3.264 3.01 3.118c.18.186.421.291.68.291.257 0 .495-.105.678-.29l7.557-7.83.855.88c.102.106.242.252.457.252.09 0 .18-.025.273-.077.063-.037.117-.077.164-.126.168-.174.2-.396.207-.57.031-.744.066-1.488.102-2.237l.05-1.12c.012-.234-.039-.416-.16-.546z"/>
</svg>
