<svg xmlns="http://www.w3.org/2000/svg" width="11" height="17" viewBox="0 0 11 17">
    <path fill="#A5AABB" fill-rule="evenodd" d="M1.99 13.276c.297-1.618 1.025-2.902 2.316-4.162l.647-.632-.647-.631C2.584 6.17 1.862 4.449 1.832 1.948c.971.177 2.252.284 3.657.284 1.404 0 2.685-.107 3.656-.284-.03 2.502-.752 4.223-2.474 5.903l-.647.631.647.632c1.292 1.26 2.02 2.544 2.317 4.162.099.538.149 1.114.156 1.737-.146-.026-.299-.05-.458-.074-.01-.504.019-.563-.119-1.413-.092-.566-1.118-1.318-3.079-2.253-1.95.872-2.976 1.623-3.078 2.253-.153.945-.11.91-.119 1.416-.16.024-.312.049-.458.075.008-.625.058-1.202.157-1.741zM5.489 0c3.03 0 5.488.5 5.488 1.116 0 .228-.337.44-.915.617v.053c0 3.125-1.006 5-2.744 6.696 1.726 1.684 2.745 3.572 2.745 6.697v.046c.591.178.937.393.937.624 0 .616-2.462 1.116-5.506 1.116-3.037 0-5.494-.5-5.494-1.116 0-.026.006-.051.014-.076l.007-.019c.01-.023.022-.046.038-.07l.003-.004c.018-.024.041-.048.067-.072l.02-.018c.026-.021.053-.042.083-.063l.012-.008c.034-.022.073-.045.114-.067l.034-.017c.037-.02.076-.037.117-.056l.026-.011c.05-.02.101-.041.156-.061l.05-.018c.045-.016.092-.03.14-.046l.034-.011v-.053c0-3.125 1.007-5 2.744-6.697C1.934 6.798.915 4.911.915 1.786v-.053C.337 1.556 0 1.344 0 1.116 0 .5 2.457 0 5.489 0zm0 6.429c-.91 0-1.647.103-1.647.231 0 .008.487.593.777.878l.87.855.87-.855c.29-.285.776-.87.776-.878 0-.128-.737-.231-1.646-.231z" opacity=".819"/>
</svg>
