<svg xmlns="http://www.w3.org/2000/svg" xmlns:xlink="http://www.w3.org/1999/xlink" width="100" height="76" viewBox="0 0 100 76">
    <defs>
        <filter id="prefix__b" width="155.8%" height="138.1%" x="-27.9%" y="-19%" filterUnits="objectBoundingBox">
            <feOffset dy="2" in="SourceAlpha" result="shadowOffsetOuter1"/>
            <feGaussianBlur in="shadowOffsetOuter1" result="shadowBlurOuter1" stdDeviation="2"/>
            <feColorMatrix in="shadowBlurOuter1" result="shadowMatrixOuter1" values="0 0 0 0 0 0 0 0 0 0 0 0 0 0 0 0 0 0 0.15 0"/>
            <feMerge>
                <feMergeNode in="shadowMatrixOuter1"/>
                <feMergeNode in="SourceGraphic"/>
            </feMerge>
        </filter>
        <circle id="prefix__a" cx="38" cy="38" r="38"/>
    </defs>
    <g fill="none" fill-rule="evenodd">
        <mask id="prefix__c" fill="#fff">
            <use xlink:href="#prefix__a"/>
        </mask>
        <g filter="url(#prefix__b)" mask="url(#prefix__c)">
            <g>
                <path fill="#1F2A55" fill-rule="nonzero" d="M36.005 34.98c.062-.106.123-.192.185-.26 2.345-3.747 3.625-8.33 3.625-13.063C39.815 9.715 31.777 0 21.898 0 12.018 0 3.981 9.715 3.981 21.657c0 4.786 1.31 9.418 3.706 13.187.025.036.05.076.076.119.078.12.156.24.236.358.896 1.19 2.045.916 2.377.803l.094-.035c1.183-.45 2.498-.827 3.917-1.124l2.482-.52-1.872-1.748c-1.523-1.422-2.513-3.35-2.79-5.43l-.14-1.05-1.032-.086c-1.699-.141-3.03-1.621-3.03-3.369 0-1.741 1.274-3.188 2.963-3.364l1.138-.12.015-.926c1.147-.346 6.201-2.02 9.753-5.581.836 1 3.974 4.307 9.802 5.6l.015.908 1.138.119c1.689.177 2.963 1.623 2.963 3.364 0 1.748-1.332 3.227-3.03 3.37l-1.033.085-.14 1.051c-.276 2.079-1.267 4.007-2.79 5.429l-1.87 1.748 2.481.52c1.483.31 2.85.708 4.076 1.185.449.13 1.662.309 2.519-1.17z" transform="translate(17 12)"/>
                <path fill="#FBCB99" fill-rule="nonzero" d="M26.291 39.614v-4.982l-1.6.448c-.717.201-1.458.303-2.201.303h-1.96c-.749 0-1.494-.103-2.216-.307l-1.603-.453v4.988l-4.767 1.224 1.037 3.97.43.28c.643.42 2.398 1.46 4.79 2.022 1.126.265 2.26.4 3.372.4 2.758 0 5.455-.817 8.02-2.427l.445-.28 1.018-3.897-4.765-1.289z" transform="translate(17 12)"/>
                <path fill="#EDBA89" fill-rule="nonzero" d="M19.713 47.107c-2.386-.563-4.136-1.601-4.777-2.022l-1.017-4.02 3.895-1.01v-4.799l-1.116-.633v4.988l-4.754 1.224 1.034 3.97.429.28c.641.42 2.39 1.46 4.777 2.022 1.122.265 2.254.4 3.363.4.25 0 .5-.01.75-.023-.858-.048-1.723-.174-2.584-.377z" transform="translate(17 12)"/>
                <path fill="#FFC628" fill-rule="nonzero" d="M28.346 45.187c-2.068.973-4.232 1.467-6.431 1.467-1.139 0-2.284-.132-3.403-.394-1.052-.245-2.086-.6-3.074-1.057l-1.901-.877L18.347 62h7.09l4.822-17.714-1.913.9z" transform="translate(17 12)"/>
                <path fill="#F5F5F7" fill-rule="nonzero" d="M28.346 45.187c-2.068.973-4.232 1.467-6.431 1.467-1.139 0-2.284-.132-3.403-.394-1.052-.245-2.086-.6-3.074-1.057l-1.901-.877L18.347 62h7.09l4.822-17.714-1.913.9z" opacity=".808" transform="translate(17 12)"/>
                <path fill="#DBD2BB" fill-rule="nonzero" d="M13.537 44.286L18.347 62 19.907 62 15.322 45.112z" transform="translate(17 12)"/>
                <g>
                    <path fill="#FFC628" fill-rule="nonzero" d="M37.966 3.059c-.573-.342-1.22-.665-1.897-.965l-.307-.134C33.68 1.07 31.39.4 30.187.073L24.38 21.74h16.388c1.826 0 2.15-1.502 2.2-2.225v-6.459c0-5.28-2.707-8.468-5.003-9.997zM12.813.073c-1.203.326-3.492.996-5.575 1.887l-.307.134c-.676.3-1.324.623-1.897.965C2.738 4.59.03 7.777.03 13.057v6.458c.05.723.375 2.225 2.201 2.225H18.62L12.813.073z" transform="translate(17 12) translate(0 40.26)"/>
                </g>
                <g fill="#D6A724" fill-rule="nonzero">
                    <path d="M2.137 19.515v-6.459c0-5.28 2.688-8.468 4.966-9.997.568-.342 1.211-.665 1.883-.966l.304-.133C10.5 1.44 11.777.994 12.87.648l-.153-.575c-1.194.326-3.466.995-5.534 1.887l-.304.133c-.671.3-1.314.624-1.883.966C2.718 4.588.03 7.776.03 13.056v6.458c.05.714.364 2.181 2.107 2.224v-2.223zM35.767 21.74V12.87c0-.558-.428-1.009-.957-1.009-.53 0-.958.451-.958 1.009v8.871h1.915z" transform="translate(17 12) translate(0 40.26)"/>
                    <path d="M8.712 21.74V12.87c0-.558-.429-1.009-.958-1.009-.529 0-.958.451-.958 1.009v8.871h1.916z" transform="translate(17 12) translate(0 40.26)"/>
                </g>
                <path fill="#FBCB99" fill-rule="nonzero" d="M33.428 18.602c-.556-.173-1.16-.072-1.628.272-.468.345-.744.891-.744 1.472v5.204c0 .581.276 1.127.744 1.471.318.234.699.356 1.084.356.182 0 .366-.027.544-.083.35-.11.695-.267 1.023-.468.193-.118.363-.272.5-.452.202-.104.382-.244.533-.414.739-.834 1.146-1.904 1.146-3.012 0-2.003-1.287-3.75-3.202-4.346z" transform="translate(17 12)"/>
                <path fill="#EDBA89" fill-rule="nonzero" d="M11.996 18.874c-.469-.344-1.073-.444-1.628-.272-1.914.597-3.201 2.343-3.201 4.346s1.287 3.75 3.201 4.346c.178.056.362.083.544.083.385 0 .765-.122 1.084-.356.468-.344.745-.89.745-1.47v-5.205c0-.58-.276-1.127-.745-1.472z" transform="translate(17 12)"/>
                <path fill="#FBCB99" fill-rule="nonzero" d="M31.842 19.08s.007-.037.01-.095v-.088c-.01-.21-.1-.555-.522-.77l-.459-.114c-4.444-1.108-7.104-3.341-8.364-4.677-1.072-1.019-2.183 0-2.183 0-3.026 2.733-6.78 4.156-8.282 4.648l-.2.066h-.001c-.512.175-.658.515-.693.756v7.7c0 5.364 4.204 9.728 9.37 9.728h1.964c5.167 0 9.37-4.364 9.37-9.727V19.07l-.01.008z" transform="translate(17 12)"/>
                <g fill="#EDBA89" fill-rule="nonzero">
                    <path d="M11.065.241c-.946-.532-1.822.265-1.822.265C6.223 3.218 2.48 4.631.98 5.12l-.2.065c-.512.174-.656.51-.692.75v7.643c0 5.323 4.194 9.654 9.35 9.654h1.531c-5.155 0-9.348-4.331-9.348-9.654V6.492c0-.87.618-1.251.973-1.399l.242-.082C4.55 4.423 8.16 2.958 11.025.28l.04-.039z" transform="translate(17 12) translate(11.148 12.883)"/>
                    <path d="M11.237 13.383c.352 0 .639.296.639.66 0 .363-.287.659-.639.659H9.606c-.352 0-.638-.296-.638-.66V10.83c0-.363.286-.659.638-.659.352 0 .638.296.638.66v2.553h.993z" transform="translate(17 12) translate(11.148 12.883)"/>
                </g>
                <path fill="#0B1027" fill-rule="nonzero" d="M7.013 34.963c.078.12.158.24.238.358.943 1.239 2.163.892 2.442.79l.06-.023-.158-.214c-2.872-3.937-4.454-8.986-4.454-14.217C5.14 10.107 12.75.64 22.296.032 21.973.012 21.646 0 21.32 0c-10 0-18.134 9.715-18.134 21.657 0 4.786 1.325 9.418 3.75 13.187.026.036.052.076.078.12z" transform="translate(17 12)"/>
            </g>
        </g>
        <circle cx="38" cy="38" r="38" stroke="#FFF" stroke-width="4" mask="url(#prefix__c)"/>
        <g transform="translate(60 3)">
            <rect width="40" height="19" fill="#CF70FE" rx="2"/>
            <g fill="#FFF" fill-rule="nonzero" transform="translate(5 4.5)">
                <path d="M7.278 2.4h1.04v4.72h2.928V8H7.278V2.4zm5.935 0h1.04V8h-1.04V2.4zm8.775 0L19.548 8h-1.024l-2.448-5.6h1.128l1.864 4.32 1.88-4.32h1.04zm5.935 4.728V8h-4.2V2.4h4.088v.872h-3.048v1.456h2.704v.856h-2.704v1.544h3.16z"/>
                <circle cx="1.25" cy="5.25" r="1.25"/>
            </g>
        </g>
    </g>
</svg>
