<svg xmlns="http://www.w3.org/2000/svg" xmlns:xlink="http://www.w3.org/1999/xlink" width="15" height="14" viewBox="0 0 15 14">
    <defs>
        <path id="a" d="M300.667 1515.824c0-.455.373-.824.833-.824.46 0 .833.369.833.824v.823h8.334v-.823c0-.455.373-.824.833-.824.46 0 .833.369.833.824v.823c.921 0 1.667.737 1.667 1.647v9.059c0 .91-.746 1.647-1.667 1.647h-11.666c-.921 0-1.667-.737-1.667-1.647v-9.059c0-.91.746-1.647 1.667-1.647v-.823zm0 4.94v5.765c0 .455.373.824.833.824h10c.46 0 .833-.369.833-.824v-5.764a.829.829 0 0 0-.833-.824h-10a.829.829 0 0 0-.833.824zm9.166 3.295c.46 0 .834.369.834.823a.829.829 0 0 1-.834.824.829.829 0 0 1-.833-.824c0-.454.373-.823.833-.823z"/>
    </defs>
    <use fill="#626A88" fill-rule="evenodd" transform="translate(-299 -1515)" xlink:href="#a"/>
</svg>
