<svg xmlns="http://www.w3.org/2000/svg" xmlns:xlink="http://www.w3.org/1999/xlink" width="10" height="16" viewBox="0 0 10 16">
    <defs>
        <path id="a" d="M302.809 1558.521c.27-1.526.932-2.737 2.106-3.925l.588-.596-.588-.596c-1.566-1.584-2.222-3.208-2.25-5.567.883.167 2.048.268 3.325.268 1.277 0 2.44-.101 3.323-.268-.027 2.36-.683 3.983-2.248 5.568l-.588.595.588.596c1.174 1.188 1.836 2.399 2.106 3.925.09.508.135 1.05.142 1.638a12.38 12.38 0 0 0-.417-.07c-.008-.475.017-.53-.108-1.332-.083-.534-1.016-1.243-2.799-2.125-1.772.822-2.705 1.53-2.798 2.125-.14.892-.1.858-.108 1.336-.145.022-.284.045-.417.07.007-.59.053-1.134.143-1.642zm7.339 1.795v.043c.538.168.852.37.852.588 0 .582-2.239 1.053-5.005 1.053h-.005c-2.756 0-4.99-.471-4.99-1.053a.245.245 0 0 1 .019-.089.323.323 0 0 1 .035-.065c0-.002.002-.003.003-.004a.508.508 0 0 1 .06-.068l.019-.017a.88.88 0 0 1 .075-.06l.01-.007a1.37 1.37 0 0 1 .136-.08 1.97 1.97 0 0 1 .106-.052l.024-.011c.044-.02.091-.039.141-.057l.046-.017c.04-.015.083-.03.127-.044l.03-.01v-.05c0-2.948.916-4.717 2.496-6.316-1.569-1.588-2.495-3.368-2.495-6.316v-.05c-.525-.166-.832-.366-.832-.581 0-.582 2.234-1.053 4.99-1.053 2.755 0 4.99.471 4.99 1.053 0 .215-.307.415-.832.581v.05c0 2.948-.916 4.717-2.495 6.316 1.568 1.588 2.495 3.368 2.495 6.316zm-3.367-7.206c.263-.27.705-.821.705-.829 0-.12-.67-.218-1.496-.218-.827 0-1.497.098-1.497.218 0 .008.442.56.706.829l.79.806.792-.806z"/>
    </defs>
    <use fill="#626A88" fill-rule="evenodd" transform="translate(-301 -1546)" xlink:href="#a"/>
</svg>
