<svg xmlns="http://www.w3.org/2000/svg" width="13" height="17" viewBox="0 0 13 17">
    <path fill="#777B8C" fill-rule="evenodd" stroke="#777B8C" stroke-width=".2" d="M10.856 6.93l2.2 1.487v.166l-2.2 1.486 2.2 1.474v.166l-6.5 4.374h-.112l-6.5-4.36v-.166l2.2-1.487-2.2-1.487v-.166l2.2-1.473-2.2-1.487v-.166l6.5-4.374h.112l6.5 4.36v.166l-2.2 1.487zm-9.44-1.556L6.5 8.794l5.083-3.42L6.5 1.954l-5.083 3.42zm8.649 2.1l-3.51 2.358h-.11l-3.51-2.357L1.416 8.5 6.5 11.92l5.084-3.42-1.52-1.025zm0 3.126l-3.51 2.357h-.11L2.934 10.6l-1.519 1.025L6.5 15.048l5.084-3.423-1.52-1.025z"/>
</svg>
