<svg xmlns="http://www.w3.org/2000/svg" xmlns:xlink="http://www.w3.org/1999/xlink" width="108" height="108" viewBox="0 0 108 108">
    <defs>
        <linearGradient id="a" x1="50%" x2="50%" y1="145.474%" y2="4.776%">
            <stop offset="0%" stop-color="#F4D8CE"/>
            <stop offset="100%" stop-color="#FFF"/>
        </linearGradient>
        <circle id="b" cx="54" cy="54" r="54"/>
        <filter id="c" width="101.9%" height="101.9%" x="-.9%" y="-.9%" filterUnits="objectBoundingBox">
            <feGaussianBlur in="SourceAlpha" result="shadowBlurInner1" stdDeviation=".5"/>
            <feOffset dy="1" in="shadowBlurInner1" result="shadowOffsetInner1"/>
            <feComposite in="shadowOffsetInner1" in2="SourceAlpha" k2="-1" k3="1" operator="arithmetic" result="shadowInnerInner1"/>
            <feColorMatrix in="shadowInnerInner1" values="0 0 0 0 0.97254902 0 0 0 0 0.901960784 0 0 0 0 0.874509804 0 0 0 1 0"/>
        </filter>
        <filter id="d" width="150%" height="145.3%" x="-25%" y="-22.6%" filterUnits="objectBoundingBox">
            <feOffset dy="2" in="SourceAlpha" result="shadowOffsetOuter1"/>
            <feGaussianBlur in="shadowOffsetOuter1" result="shadowBlurOuter1" stdDeviation="2"/>
            <feColorMatrix in="shadowBlurOuter1" result="shadowMatrixOuter1" values="0 0 0 0 0 0 0 0 0 0 0 0 0 0 0 0 0 0 0.06 0"/>
            <feMerge>
                <feMergeNode in="shadowMatrixOuter1"/>
                <feMergeNode in="SourceGraphic"/>
            </feMerge>
        </filter>
        <linearGradient id="e" x1="50%" x2="50%" y1="116.924%" y2="2.26%">
            <stop offset="0%" stop-color="#FF8668"/>
            <stop offset="100%" stop-color="#FFE7AF"/>
        </linearGradient>
        <linearGradient id="f" x1="50%" x2="50%" y1="0%" y2="107.901%">
            <stop offset="0%" stop-color="#FFD8BF"/>
            <stop offset="100%" stop-color="#FF9D79"/>
        </linearGradient>
    </defs>
    <g fill="none" fill-rule="evenodd">
        <g>
            <use fill="url(#a)" xlink:href="#b"/>
            <use fill="#000" filter="url(#c)" xlink:href="#b"/>
        </g>
        <g filter="url(#d)" transform="translate(30 28)">
            <path fill="url(#e)" d="M33.417 3.458s3.421-.854 5.131 3.415c0 0 7.698 0 6.843 11.954 0 0 5.131 7.683-2.566 12.807 0 0 1.71 6.83-4.277 9.39 0 0 1.71 5.123-3.422 5.977 0 0-5.987 10.246-11.119.854-5.166 9.392-11.154-.854-11.154-.854-5.131-.854-3.421-5.976-3.421-5.976-5.987-2.561-4.277-9.391-4.277-9.391-7.698-5.123-2.566-12.807-2.566-12.807C1.734 6.873 9.431 6.873 9.431 6.873c1.711-4.269 5.132-3.415 5.132-3.415 5.132-5.122 9.409-.854 9.409-.854.036 0 4.313-4.269 9.445.854z"/>
            <path fill="url(#f)" d="M24.008 2.605h.005-.005zm-10.2 1.687c-.855 0-2.501.365-3.526 2.92a.915.915 0 0 1-.85.575c-.078.001-2.097.048-3.765 1.858-1.734 1.884-2.462 4.95-2.164 9.117a.915.915 0 0 1-.151.571c-.187.282-4.516 6.996 2.312 11.54a.913.913 0 0 1 .38.982c-.06.247-1.434 6.113 3.749 8.33a.913.913 0 0 1 .508 1.13c-.006.016-.63 1.974.214 3.362.452.745 1.29 1.224 2.489 1.424a.917.917 0 0 1 .64.44c.72 1.226 3.12 4.402 5.49 4.364 1.425-.022 2.783-1.194 4.035-3.487a.916.916 0 0 1 .803-.476c.335 0 .678.183.839.476 1.252 2.293 2.61 3.465 4.034 3.487h.04c2.369 0 4.735-3.145 5.45-4.364a.916.916 0 0 1 .64-.44c1.203-.2 2.043-.682 2.494-1.43.833-1.382.217-3.337.21-3.357a.913.913 0 0 1 .508-1.128c5.21-2.23 3.811-8.082 3.75-8.331a.913.913 0 0 1 .38-.982c2.88-1.916 4.148-4.423 3.769-7.45-.29-2.321-1.445-4.072-1.458-4.09a.915.915 0 0 1-.151-.571c.298-4.166-.43-7.233-2.164-9.117-1.668-1.81-3.686-1.856-3.771-1.858a.923.923 0 0 1-.844-.574c-1.354-3.38-3.796-2.929-4.069-2.866a.932.932 0 0 1-.86-.242c-1.886-1.882-3.824-2.59-5.76-2.108a5.648 5.648 0 0 0-2.354 1.254.917.917 0 0 1-.647.268h-.035a.917.917 0 0 1-.647-.268 5.655 5.655 0 0 0-2.424-1.27c-1.914-.449-3.828.265-5.69 2.124a.916.916 0 0 1-.87.24 2.455 2.455 0 0 0-.533-.053zm-1.52 43.53c-1.54-.34-2.665-1.081-3.346-2.21-.865-1.435-.748-3.114-.571-4.082-4.257-2.252-4.685-6.833-4.233-9.493C.242 29.19-.233 25.683.078 23.195c.275-2.195 1.194-3.944 1.58-4.599-.28-4.567.627-8.006 2.697-10.225A7.62 7.62 0 0 1 8.81 6.014c1.459-3.08 3.939-3.676 5.449-3.53 2.823-2.627 5.435-2.69 7.157-2.26a7.553 7.553 0 0 1 2.575 1.214c.551-.4 1.44-.93 2.575-1.214 1.721-.428 4.333-.366 7.157 2.26 1.508-.146 3.989.45 5.448 3.53a7.62 7.62 0 0 1 4.455 2.357c2.07 2.219 2.977 5.658 2.698 10.225.386.656 1.305 2.404 1.58 4.6.31 2.487-.164 5.995-4.06 8.84.45 2.661.023 7.242-4.234 9.494.177.967.294 2.647-.572 4.082-.68 1.128-1.805 1.87-3.346 2.21-.783 1.206-3.499 4.96-6.87 4.91-1.793-.026-3.414-1.085-4.832-3.15-1.417 2.066-3.038 3.124-4.832 3.15-3.41 0-6.092-3.711-6.87-4.91z"/>
            <path fill="#FFF" d="M32.92 14h-.006a.926.926 0 0 1-.914-.934c0-.206.066-5.076 5.788-7.018a.918.918 0 0 1 1.165.593.941.941 0 0 1-.583 1.185c-4.428 1.503-4.527 5.095-4.53 5.247a.932.932 0 0 1-.92.927M38.529 34c-.442 0-.876-.065-1.302-.196-2.855-.875-4.12-4.402-4.172-4.552-.169-.481.065-1.016.521-1.194.455-.178.962.068 1.132.548.01.028 1.017 2.807 3.018 3.415 1.123.341 2.422-.07 3.858-1.224a.851.851 0 0 1 1.236.175.964.964 0 0 1-.167 1.303C41.226 33.423 39.843 34 38.529 34M29.1 41a.718.718 0 0 1-.197-.028c-.435-.127-.7-.64-.595-1.146.028-.141.577-3.121-2.07-6.205a1.064 1.064 0 0 1 0-1.343.736.736 0 0 1 1.153 0c3.335 3.886 2.536 7.836 2.5 8.002-.093.432-.425.72-.79.72M24 47c-.552 0-1-.374-1-.834V4.834c0-.46.448-.834 1-.834s1 .374 1 .834v41.332c0 .46-.448.834-1 .834M26.947 21a.95.95 0 0 1-.586-.2.92.92 0 0 1-.157-1.308c2.953-3.682 2.902-9.489 2.9-9.547A.939.939 0 0 1 30.039 9a.926.926 0 0 1 .961.918c.004.265.058 6.532-3.308 10.727a.95.95 0 0 1-.744.355" opacity=".431"/>
            <path fill="#FFF" d="M26.92 45a.92.92 0 0 1-.873-1.211c.08-.237 1.976-5.789 6.033-5.789a.92.92 0 0 1 0 1.84c-2.267 0-3.863 3.271-4.287 4.532a.921.921 0 0 1-.873.628M30.908 7a.871.871 0 0 1-.541-.19.99.99 0 0 1-.187-1.339l2.181-3.085a.88.88 0 0 1 1.272-.197.99.99 0 0 1 .187 1.34L31.64 6.613a.891.891 0 0 1-.73.386" opacity=".431"/>
            <path fill="#FFF9F7" d="M14.5 9a2.5 2.5 0 1 1 0 5 2.5 2.5 0 0 1 0-5"/>
            <path fill="#FFE0C5" d="M14.5 9.75c-.965 0-1.75.785-1.75 1.75s.785 1.75 1.75 1.75 1.75-.785 1.75-1.75-.785-1.75-1.75-1.75zm0 5.25c-1.93 0-3.5-1.57-3.5-3.5S12.57 8 14.5 8 18 9.57 18 11.5 16.43 15 14.5 15z"/>
            <path fill="#FFF9F7" d="M8.5 21a2.5 2.5 0 1 1 0 5 2.5 2.5 0 0 1 0-5"/>
            <path fill="#FFE0C5" d="M8.5 21.75c-.965 0-1.75.785-1.75 1.75s.785 1.75 1.75 1.75 1.75-.785 1.75-1.75-.785-1.75-1.75-1.75zm0 5.25C6.57 27 5 25.43 5 23.5S6.57 20 8.5 20s3.5 1.57 3.5 3.5S10.43 27 8.5 27z"/>
            <path fill="#FFF9F7" d="M17.5 29a2.5 2.5 0 1 1 0 5 2.5 2.5 0 0 1 0-5"/>
            <path fill="#FFE0C5" d="M17.5 29.75c-.965 0-1.75.785-1.75 1.75s.785 1.75 1.75 1.75 1.75-.785 1.75-1.75-.785-1.75-1.75-1.75zm0 5.25c-1.93 0-3.5-1.57-3.5-3.5s1.57-3.5 3.5-3.5 3.5 1.57 3.5 3.5-1.57 3.5-3.5 3.5z"/>
            <path fill="#FFF9F7" d="M17.5 39a2.5 2.5 0 1 1 0 5 2.5 2.5 0 0 1 0-5"/>
            <path fill="#FFE0C5" d="M17.5 39.75c-.965 0-1.75.785-1.75 1.75s.785 1.75 1.75 1.75 1.75-.785 1.75-1.75-.785-1.75-1.75-1.75zm0 5.25c-1.93 0-3.5-1.57-3.5-3.5s1.57-3.5 3.5-3.5 3.5 1.57 3.5 3.5-1.57 3.5-3.5 3.5zM15 25c-.552 0-1-.41-1-.917v-9.166c0-.506.448-.917 1-.917s1 .41 1 .917v9.166c0 .507-.447.917-1 .917"/>
            <path fill="#FFE0C5" d="M17.111 25H10.89c-.49 0-.889-.448-.889-1s.398-1 .89-1h6.221c.49 0 .889.448.889 1s-.398 1-.889 1"/>
            <path fill="#FFE0C5" d="M18 30c-.552 0-1-.392-1-.875v-5.25c0-.483.448-.875 1-.875s1 .392 1 .875v5.25c0 .483-.447.875-1 .875M18 40c-.552 0-1-.384-1-.857v-4.286c0-.473.448-.857 1-.857s1 .384 1 .857v4.286c0 .474-.447.857-1 .857"/>
        </g>
    </g>
</svg>
