<svg xmlns="http://www.w3.org/2000/svg" width="34" height="34" viewBox="0 0 34 34">
    <g fill="none" fill-rule="evenodd">
        <rect width="34" height="34" fill="#71AEF3" rx="3.984"/>
        <path d="M5 5h24v24H5z"/>
        <path fill="#FFF" d="M14 25v.02A2.99 2.99 0 0 0 17 28c1.657 0 3-1.334 3-2.98V25h-6zM25.795 22.246l-2.338-3.262v-4.071c0-2.746-2.058-5.034-4.789-5.55V8.11c0-.613-.523-1.11-1.168-1.11-.645 0-1.168.497-1.168 1.11v1.253c-2.73.516-4.789 2.804-4.789 5.55v4.07l-2.338 3.264a1.075 1.075 0 0 0-.068 1.156 1.19 1.19 0 0 0 1.044.597H24.82c.437 0 .84-.23 1.044-.597a1.075 1.075 0 0 0-.068-1.157z"/>
    </g>
</svg>
