<svg xmlns="http://www.w3.org/2000/svg" xmlns:xlink="http://www.w3.org/1999/xlink" width="14" height="13" viewBox="0 0 14 13">
    <defs>
        <path id="a" d="M452.915 1355.588l1.013-1.245v2.429c0 .677-.563 1.228-1.254 1.228h-8.419c-.69 0-1.255-.551-1.255-1.228v-10.544c0-.677.564-1.228 1.255-1.228h8.419c.69 0 1.254.551 1.254 1.228v1.783l-1.129 1.387v-2.873a.36.36 0 0 0-.363-.356h-7.943c-.2 0-.365.16-.365.356v9.948c0 .199.164.358.365.358h7.943c.2 0 .363-.16.363-.358v-.772c.038-.038.081-.07.116-.113zm-1.577-.242c-.293 0-.571-.127-.763-.343l-1.867-2.116a.971.971 0 0 1 .106-1.39 1.021 1.021 0 0 1 1.42.1l1.072 1.216 3.899-4.786c.346-.426.979-.499 1.414-.157a.97.97 0 0 1 .16 1.386l-4.654 5.716c-.186.23-.467.366-.767.374h-.02z"/>
    </defs>
    <use fill="#777B8C" fill-rule="evenodd" transform="translate(-443 -1345)" xlink:href="#a"/>
</svg>
