<svg xmlns="http://www.w3.org/2000/svg" xmlns:xlink="http://www.w3.org/1999/xlink" width="16" height="19" viewBox="0 0 16 19">
    <defs>
        <linearGradient id="a" x1="0%" x2="97.915%" y1="39.241%" y2="39.241%">
            <stop offset="0%" stop-color="#0BF5C2"/>
            <stop offset="100%" stop-color="#04E1AF"/>
        </linearGradient>
        <linearGradient id="b" x1="0%" y1="36.923%" y2="36.923%">
            <stop offset="0%" stop-color="#0FFFCC"/>
            <stop offset="100%" stop-color="#04E1AF"/>
        </linearGradient>
        <path id="c" d="M12.528.954c.968 0 1.757.806 1.757 1.794v7.443c0 .87-.38 1.746-1.068 2.623-.554.707-1.298 1.404-2.185 2.083a22.345 22.345 0 0 1-2.14 1.44 22.279 22.279 0 0 1-.98.55l-.243.125-.243-.124a6.85 6.85 0 0 1-.274-.147 22.345 22.345 0 0 1-2.845-1.844c-.888-.68-1.631-1.376-2.186-2.083-.686-.877-1.067-1.752-1.067-2.623V2.748c0-.988.79-1.794 1.757-1.794h9.717zM7.674 15.777a21.251 21.251 0 0 0 2.703-1.754c1.767-1.357 2.815-2.697 2.815-3.823V2.754a.683.683 0 0 0-.67-.687H2.816c-.367 0-.67.31-.67.687V10.2c0 1.126 1.048 2.466 2.815 3.823.646.495 1.34.956 2.033 1.37a21.167 21.167 0 0 0 .674.387l.005-.003z"/>
        <filter id="d" width="107.6%" height="106.2%" x="-3.8%" y="-3.1%" filterUnits="objectBoundingBox">
            <feGaussianBlur in="SourceAlpha" result="shadowBlurInner1" stdDeviation=".5"/>
            <feOffset in="shadowBlurInner1" result="shadowOffsetInner1"/>
            <feComposite in="shadowOffsetInner1" in2="SourceAlpha" k2="-1" k3="1" operator="arithmetic" result="shadowInnerInner1"/>
            <feColorMatrix in="shadowInnerInner1" values="0 0 0 0 0 0 0 0 0 0 0 0 0 0 0 0 0 0 0.32775702 0"/>
        </filter>
    </defs>
    <g fill="none" fill-rule="evenodd">
        <path d="M-4-3h24v24H-4z"/>
        <path fill="url(#a)" d="M13.758 0H1.528C.689 0 0 .703 0 1.563v9.38c0 3.91 7.643 7.818 7.643 7.818s7.644-3.908 7.644-7.817v-9.38c0-.86-.688-1.564-1.529-1.564z"/>
        <path fill="url(#b)" d="M12.353 1.272h-9.42c-.647 0-1.177.54-1.177 1.199v7.194c0 2.998 5.887 5.995 5.887 5.995s5.887-2.997 5.887-5.995V2.471c0-.66-.53-1.2-1.177-1.2z"/>
        <g fill-rule="nonzero">
            <use fill="#0BBD9B" xlink:href="#c"/>
            <use fill="#000" filter="url(#d)" xlink:href="#c"/>
        </g>
        <path fill="#0ABA98" d="M10.276 7.063a.474.474 0 0 0-.469.479H5.724a.474.474 0 0 0-.47-.479.474.474 0 0 0-.468.479v2.56c0 .203.125.383.311.451l2.51.915a.461.461 0 0 0 .316 0l2.511-.915a.478.478 0 0 0 .311-.45V7.542a.474.474 0 0 0-.469-.479z"/>
        <path fill="#09A98A" d="M10.297 7.063a.474.474 0 0 0-.469.479H7.786v3.954c.054 0 .107-.01.158-.028l2.51-.915a.478.478 0 0 0 .312-.45V7.542a.474.474 0 0 0-.469-.479z"/>
        <path fill="#1CA288" d="M11.442 6.714l-3.515-1.28a.46.46 0 0 0-.315 0l-3.515 1.28a.478.478 0 0 0-.311.45c0 .203.124.383.311.45l3.515 1.281a.461.461 0 0 0 .315 0l3.515-1.28a.478.478 0 0 0 .312-.45.478.478 0 0 0-.312-.451z"/>
        <path fill="#298875" d="M7.944 8.895l3.515-1.28a.478.478 0 0 0 .311-.45.478.478 0 0 0-.31-.451l-3.516-1.28a.458.458 0 0 0-.158-.028v3.517c.054 0 .107-.01.158-.028z"/>
    </g>
</svg>
