<svg xmlns="http://www.w3.org/2000/svg" xmlns:xlink="http://www.w3.org/1999/xlink" width="24" height="24" viewBox="0 0 24 24">
    <defs>
        <linearGradient id="c" x1="-23.862%" x2="96.378%" y1="53.401%" y2="50%">
            <stop offset="0%" stop-color="#FFDF64"/>
            <stop offset="100%" stop-color="#FFD123"/>
        </linearGradient>
        <path id="b" d="M17.647 9.15a8.865 8.865 0 0 1-.796 3.668 9.028 9.028 0 0 1-.722 1.283 9.13 9.13 0 0 1-1.06 1.283 8.787 8.787 0 0 1-6.245 2.588A8.823 8.823 0 1 1 8.774.326h.05a8.818 8.818 0 0 1 7.851 4.794 8.738 8.738 0 0 1 .721 1.924 8.99 8.99 0 0 1 .214 1.283 8.553 8.553 0 0 1 .037.823z"/>
        <filter id="a" width="156.7%" height="156.7%" x="-22.7%" y="-22.7%" filterUnits="objectBoundingBox">
            <feOffset dx="1" dy="1" in="SourceAlpha" result="shadowOffsetOuter1"/>
            <feGaussianBlur in="shadowOffsetOuter1" result="shadowBlurOuter1" stdDeviation="1.5"/>
            <feColorMatrix in="shadowBlurOuter1" values="0 0 0 0 0 0 0 0 0 0 0 0 0 0 0 0 0 0 0.04 0"/>
        </filter>
        <linearGradient id="d" x1="82.236%" x2="12.142%" y1="50.717%" y2="50.717%">
            <stop offset="0%" stop-color="#F4BF1A"/>
            <stop offset="100%" stop-color="#F4BF1A"/>
        </linearGradient>
        <path id="e" d="M8.824 1.787H8.78A7.308 7.308 0 0 0 8.802 16.4a7.308 7.308 0 0 0 .022-14.614zm0 12.79a5.43 5.43 0 1 1-.002-10.864 5.43 5.43 0 0 1 .002 10.867v-.002z"/>
        <filter id="f" width="106.8%" height="106.8%" x="-3.4%" y="-3.4%" filterUnits="objectBoundingBox">
            <feGaussianBlur in="SourceAlpha" result="shadowBlurInner1" stdDeviation=".5"/>
            <feOffset in="shadowBlurInner1" result="shadowOffsetInner1"/>
            <feComposite in="shadowOffsetInner1" in2="SourceAlpha" k2="-1" k3="1" operator="arithmetic" result="shadowInnerInner1"/>
            <feColorMatrix in="shadowInnerInner1" values="0 0 0 0 0.701960784 0 0 0 0 0.556862745 0 0 0 0 0.0980392157 0 0 0 0.5 0"/>
        </filter>
        <linearGradient id="g" x1="99.996%" x2="0%" y1="50.531%" y2="49.437%">
            <stop offset="0%" stop-color="#FFD123"/>
            <stop offset="100%" stop-color="#FAE388"/>
        </linearGradient>
        <path id="h" d="M9.578 9.148l1.766-3.058H7.813z"/>
        <filter id="i" width="156.6%" height="165.4%" x="-28.3%" y="-32.7%" filterUnits="objectBoundingBox">
            <feGaussianBlur in="SourceAlpha" result="shadowBlurInner1" stdDeviation=".5"/>
            <feOffset dy="1" in="shadowBlurInner1" result="shadowOffsetInner1"/>
            <feComposite in="shadowOffsetInner1" in2="SourceAlpha" k2="-1" k3="1" operator="arithmetic" result="shadowInnerInner1"/>
            <feColorMatrix in="shadowInnerInner1" values="0 0 0 0 0.823529412 0 0 0 0 0.643137255 0 0 0 0 0.0941176471 0 0 0 0.3 0"/>
        </filter>
        <path id="j" d="M9.578 9.147l1.766 3.058H7.813z"/>
        <filter id="k" width="156.6%" height="165.4%" x="-28.3%" y="-32.7%" filterUnits="objectBoundingBox">
            <feGaussianBlur in="SourceAlpha" result="shadowBlurInner1" stdDeviation=".5"/>
            <feOffset dy="1" in="shadowBlurInner1" result="shadowOffsetInner1"/>
            <feComposite in="shadowOffsetInner1" in2="SourceAlpha" k2="-1" k3="1" operator="arithmetic" result="shadowInnerInner1"/>
            <feColorMatrix in="shadowInnerInner1" values="0 0 0 0 0.823529412 0 0 0 0 0.643137255 0 0 0 0 0.0941176471 0 0 0 0.3 0"/>
        </filter>
        <path id="l" d="M7.813 6.09l1.765 3.058H6.047z"/>
        <filter id="m" width="156.6%" height="165.4%" x="-28.3%" y="-32.7%" filterUnits="objectBoundingBox">
            <feGaussianBlur in="SourceAlpha" result="shadowBlurInner1" stdDeviation=".5"/>
            <feOffset dy="1" in="shadowBlurInner1" result="shadowOffsetInner1"/>
            <feComposite in="shadowOffsetInner1" in2="SourceAlpha" k2="-1" k3="1" operator="arithmetic" result="shadowInnerInner1"/>
            <feColorMatrix in="shadowInnerInner1" values="0 0 0 0 0.823529412 0 0 0 0 0.643137255 0 0 0 0 0.0941176471 0 0 0 0.3 0"/>
        </filter>
        <path id="n" d="M7.813 12.205l1.765-3.057H6.047z"/>
        <filter id="o" width="156.6%" height="165.4%" x="-28.3%" y="-32.7%" filterUnits="objectBoundingBox">
            <feGaussianBlur in="SourceAlpha" result="shadowBlurInner1" stdDeviation=".5"/>
            <feOffset dy="1" in="shadowBlurInner1" result="shadowOffsetInner1"/>
            <feComposite in="shadowOffsetInner1" in2="SourceAlpha" k2="-1" k3="1" operator="arithmetic" result="shadowInnerInner1"/>
            <feColorMatrix in="shadowInnerInner1" values="0 0 0 0 0.823529412 0 0 0 0 0.643137255 0 0 0 0 0.0941176471 0 0 0 0.3 0"/>
        </filter>
    </defs>
    <g fill="none" fill-rule="evenodd">
        <g fill-rule="nonzero" transform="translate(2 2)">
            <use fill="#000" filter="url(#a)" xlink:href="#b"/>
            <use fill="url(#c)" xlink:href="#b"/>
        </g>
        <g fill-rule="nonzero" transform="translate(2 2)">
            <use fill="url(#d)" xlink:href="#e"/>
            <use fill="#000" filter="url(#f)" xlink:href="#e"/>
        </g>
        <path fill="url(#g)" fill-rule="nonzero" d="M14.255 9.15a5.43 5.43 0 0 1-5.431 5.43 5.43 5.43 0 1 1 5.431-5.43z" transform="translate(2 2)"/>
        <g transform="translate(2 2)">
            <use fill="#F4BF1A" xlink:href="#h"/>
            <use fill="#000" filter="url(#i)" xlink:href="#h"/>
        </g>
        <g transform="translate(2 2)">
            <use fill="#F4BF1A" xlink:href="#j"/>
            <use fill="#000" filter="url(#k)" xlink:href="#j"/>
        </g>
        <g transform="translate(2 2)">
            <use fill="#F4BF1A" xlink:href="#l"/>
            <use fill="#000" filter="url(#m)" xlink:href="#l"/>
        </g>
        <g transform="translate(2 2)">
            <use fill="#F4BF1A" xlink:href="#n"/>
            <use fill="#000" filter="url(#o)" xlink:href="#n"/>
        </g>
    </g>
</svg>
