<svg xmlns="http://www.w3.org/2000/svg" width="15" height="14" viewBox="0 0 15 14">
    <path fill="#626A88" fill-rule="evenodd" d="M7.462 12.355c2.734 0 4.95-2.209 4.95-4.934s-2.216-4.934-4.95-4.934c-2.733 0-4.95 2.21-4.95 4.934 0 2.725 2.217 4.934 4.95 4.934zm0 1.645c-3.645 0-6.6-2.946-6.6-6.579 0-3.633 2.955-6.579 6.6-6.579 3.645 0 6.6 2.946 6.6 6.58 0 3.632-2.955 6.578-6.6 6.578zM14.76 3.53a.827.827 0 0 1-1.167 0l-2.133-2.126a.821.821 0 0 1 0-1.163.827.827 0 0 1 1.167 0l2.133 2.126a.821.821 0 0 1 0 1.163zM3.54.24a.821.821 0 0 1 0 1.164L1.408 3.53a.827.827 0 0 1-1.167 0 .821.821 0 0 1 0-1.163L2.374.24a.827.827 0 0 1 1.167 0zm3.634 4.538a.566.566 0 0 0-1.135 0v3.134l2.431 2.353a.568.568 0 0 0 .802-.8L7.175 7.384V4.778z"/>
</svg>
