<svg xmlns="http://www.w3.org/2000/svg" xmlns:xlink="http://www.w3.org/1999/xlink" width="108" height="108" viewBox="0 0 108 108">
    <defs>
        <linearGradient id="a" x1="50%" x2="50%" y1="0%" y2="89.011%">
            <stop offset="0%" stop-color="#FFF"/>
            <stop offset="100%" stop-color="#DCECFF"/>
        </linearGradient>
        <circle id="b" cx="54" cy="54" r="54"/>
        <filter id="c" width="101.9%" height="101.9%" x="-.9%" y="-.9%" filterUnits="objectBoundingBox">
            <feGaussianBlur in="SourceAlpha" result="shadowBlurInner1" stdDeviation=".5"/>
            <feOffset dy="1" in="shadowBlurInner1" result="shadowOffsetInner1"/>
            <feComposite in="shadowOffsetInner1" in2="SourceAlpha" k2="-1" k3="1" operator="arithmetic" result="shadowInnerInner1"/>
            <feColorMatrix in="shadowInnerInner1" values="0 0 0 0 0.738455351 0 0 0 0 0.840650218 0 0 0 0 0.970716412 0 0 0 1 0"/>
        </filter>
        <filter id="d" width="149%" height="149%" x="-24.5%" y="-24.5%" filterUnits="objectBoundingBox">
            <feOffset dy="2" in="SourceAlpha" result="shadowOffsetOuter1"/>
            <feGaussianBlur in="shadowOffsetOuter1" result="shadowBlurOuter1" stdDeviation="2"/>
            <feColorMatrix in="shadowBlurOuter1" result="shadowMatrixOuter1" values="0 0 0 0 0 0 0 0 0 0 0 0 0 0 0 0 0 0 0.0615375906 0"/>
            <feMerge>
                <feMergeNode in="shadowMatrixOuter1"/>
                <feMergeNode in="SourceGraphic"/>
            </feMerge>
        </filter>
        <linearGradient id="e" x1="39.857%" x2="39.857%" y1="28.561%" y2="127.732%">
            <stop offset="0%" stop-color="#2F48E4"/>
            <stop offset="100%" stop-color="#AAACFC"/>
        </linearGradient>
    </defs>
    <g fill="none" fill-rule="evenodd">
        <g>
            <use fill="url(#a)" xlink:href="#b"/>
            <use fill="#000" filter="url(#c)" xlink:href="#b"/>
        </g>
        <g filter="url(#d)" transform="translate(30 30)">
            <path fill="url(#e)" d="M48.87 5.637v37.596c0 3.11-2.534 5.638-5.652 5.638H5.645A5.644 5.644 0 0 1 0 43.233V5.637A5.644 5.644 0 0 1 5.645 0h37.573c3.118 0 5.653 2.528 5.653 5.637z"/>
            <path stroke="#FFF" stroke-width="1.8" d="M0 13.533h48.87"/>
            <path fill="#FFF" d="M11.278 6.767a1.504 1.504 0 1 1-3.007 0 1.504 1.504 0 0 1 3.007 0M15.037 8.27a1.504 1.504 0 1 1 0-3.007 1.504 1.504 0 0 1 0 3.007z"/>
            <path stroke="#FFF" stroke-linecap="round" stroke-linejoin="round" stroke-width="1.8" d="M18.045 27.067l-7.519 4.887 7.38 4.887M30.826 27.067l7.519 4.887-7.38 4.887M26.315 22.556l-4.511 17.292"/>
        </g>
    </g>
</svg>
